<?xml version="1.0" encoding="UTF-8"?>
<svg id="Ebene_1" data-name="Ebene 1" xmlns="http://www.w3.org/2000/svg" width="10mm" height="128.5mm" viewBox="0 0 28.346 364.252">
  <defs>
    <style>
      .cls-1, .cls-2 {
        fill: none;
      }

      .cls-3 {
        fill: #1d1d1b;
      }

      .cls-2 {
        stroke: #fff;
        stroke-width: .25px;
      }
    </style>
  </defs>
  <path class="cls-3" d="m14.173,329.681c4.697,0,8.504-3.807,8.504-8.504s-3.807-8.504-8.504-8.504-8.504,3.807-8.504,8.504,3.807,8.504,8.504,8.504"/>
  <line class="cls-2" x1="14.173" y1="318.343" x2="14.173" y2="324.012"/>
  <line class="cls-2" x1="11.339" y1="321.177" x2="17.008" y2="321.177"/>
  <path class="cls-3" d="m14.173,290.528c4.697,0,8.504-3.807,8.504-8.504s-3.807-8.504-8.504-8.504-8.504,3.807-8.504,8.504,3.807,8.504,8.504,8.504"/>
  <line class="cls-2" x1="14.173" y1="279.189" x2="14.173" y2="284.858"/>
  <line class="cls-2" x1="11.339" y1="282.024" x2="17.008" y2="282.024"/>
  <path class="cls-3" d="m14.173,251.374c4.697,0,8.504-3.807,8.504-8.504s-3.807-8.504-8.504-8.504-8.504,3.807-8.504,8.504,3.807,8.504,8.504,8.504"/>
  <line class="cls-2" x1="14.173" y1="240.036" x2="14.173" y2="245.705"/>
  <line class="cls-2" x1="11.339" y1="242.87" x2="17.008" y2="242.87"/>
  <path class="cls-3" d="m14.173,173.067c4.697,0,8.504-3.807,8.504-8.504s-3.807-8.504-8.504-8.504-8.504,3.807-8.504,8.504,3.807,8.504,8.504,8.504"/>
  <line class="cls-2" x1="14.173" y1="161.728" x2="14.173" y2="167.397"/>
  <line class="cls-2" x1="11.339" y1="164.563" x2="17.008" y2="164.563"/>
  <path class="cls-3" d="m14.173,133.913c4.697,0,8.504-3.807,8.504-8.504s-3.807-8.504-8.504-8.504-8.504,3.807-8.504,8.504,3.807,8.504,8.504,8.504"/>
  <line class="cls-2" x1="14.173" y1="122.575" x2="14.173" y2="128.244"/>
  <line class="cls-2" x1="11.339" y1="125.41" x2="17.008" y2="125.41"/>
  <path class="cls-3" d="m14.173,94.76c4.697,0,8.504-3.807,8.504-8.504s-3.807-8.504-8.504-8.504-8.504,3.807-8.504,8.504,3.807,8.504,8.504,8.504"/>
  <line class="cls-2" x1="14.173" y1="83.421" x2="14.173" y2="89.09"/>
  <line class="cls-2" x1="11.339" y1="86.256" x2="17.008" y2="86.256"/>
  <path class="cls-3" d="m14.173,55.587c4.697,0,8.504-3.807,8.504-8.504s-3.807-8.504-8.504-8.504-8.504,3.807-8.504,8.504,3.807,8.504,8.504,8.504"/>
  <line class="cls-2" x1="14.173" y1="44.249" x2="14.173" y2="49.918"/>
  <line class="cls-2" x1="11.339" y1="47.084" x2="17.008" y2="47.084"/>
  <path class="cls-3" d="m14.173,212.221c4.697,0,8.504-3.807,8.504-8.504s-3.807-8.504-8.504-8.504-8.504,3.807-8.504,8.504,3.807,8.504,8.504,8.504"/>
  <line class="cls-2" x1="14.173" y1="200.882" x2="14.173" y2="206.551"/>
  <line class="cls-2" x1="11.339" y1="203.717" x2="17.008" y2="203.717"/>
  <path class="cls-3" d="m7.087,13.039c2.505,0,4.535-2.031,4.535-4.535s-2.03-4.536-4.535-4.536-4.535,2.031-4.535,4.536,2.03,4.535,4.535,4.535"/>
  <line class="cls-2" x1="7.087" y1="6.378" x2="7.087" y2="10.63"/>
  <line class="cls-2" x1="4.961" y1="8.504" x2="9.213" y2="8.504"/>
  <path class="cls-3" d="m7.087,360.284c2.505,0,4.535-2.031,4.535-4.535s-2.03-4.536-4.535-4.536-4.535,2.031-4.535,4.536,2.03,4.535,4.535,4.535"/>
  <line class="cls-2" x1="7.087" y1="353.622" x2="7.087" y2="357.874"/>
  <line class="cls-2" x1="4.961" y1="355.748" x2="9.213" y2="355.748"/>
  <rect class="cls-1" width="28.346" height="364.252"/>
</svg>