<?xml version="1.0" encoding="UTF-8"?>
<svg id="Ebene_1" data-name="Ebene 1" xmlns="http://www.w3.org/2000/svg" width="10mm" height="1285mm" viewBox="0 0 28.346 3642.52">
  <defs>
    <style>
      .cls-1, .cls-2, .cls-3 {
        fill: none;
      }

      .cls-4 {
        fill: #1d1d1b;
      }

      .cls-2 {
        stroke: #fff;
      }

      .cls-2, .cls-3 {
        stroke-width: .25px;
      }

      .cls-3 {
        stroke: #1d1d1b;
      }
    </style>
  </defs>
  <g>
    <path d="m21.004,14.417c-.585,0-1.04.455-1.04,1.04,0,.104.013.208.039.299-.091-.026-.195-.039-.299-.039-.586,0-1.041.455-1.041,1.04,0,.104.013.208.039.299-.091-.026-.194-.041-.298-.041s-.208.015-.299.041c.026-.091.039-.195.039-.299,0-.585-.455-1.04-1.04-1.04-.105,0-.209.013-.3.039.026-.091.039-.195.039-.299,0-.585-.455-1.04-1.039-1.04s-1.04.455-1.04,1.04c0,.247.077.468.22.65-.143.182-.22.403-.22.65s.077.468.22.649c-.143.182-.22.402-.22.649s.077.468.22.65c-.143.182-.22.403-.22.65,0,.585.455,1.04,1.04,1.04s1.039-.455,1.039-1.04c0-.247-.077-.468-.22-.65.143-.182.22-.403.22-.65,0-.104-.013-.208-.039-.299.091.026.195.041.3.041.104,0,.208-.015.299-.041-.026.091-.039.195-.039.299,0,.585.455,1.04,1.04,1.04s1.039-.455,1.039-1.04c0-.104-.013-.208-.039-.299.091.026.195.041.3.041.104,0,.208-.015.299-.041-.026.091-.039.195-.039.299,0,.247.077.468.22.65-.143.182-.22.403-.22.65,0,.585.455,1.04,1.04,1.04s1.039-.455,1.039-1.04c0-.247-.077-.468-.22-.65.143-.182.22-.403.22-.65s-.077-.467-.22-.649c.143-.181.22-.402.22-.649s-.078-.468-.221-.65c.143-.182.221-.403.221-.65,0-.585-.455-1.04-1.039-1.04Z"/>
    <path d="m24.747,16.107c.143-.182.221-.403.221-.65,0-.585-.455-1.04-1.039-1.04s-1.04.455-1.04,1.04c0,.247.077.468.22.65-.143.181-.22.402-.22.649s.077.468.22.65c-.143.182-.22.403-.22.65s.077.468.22.65c-.143.182-.22.403-.22.65,0,.584.455,1.039,1.04,1.039s1.039-.455,1.039-1.039c0-.247-.077-.468-.22-.65.143-.182.22-.403.22-.65s-.077-.468-.22-.65c.143-.182.22-.403.22-.65s-.078-.468-.221-.649Z"/>
  </g>
  <g>
    <path class="cls-1" d="m18.599,7.197c-.105,0-.209-.015-.3-.041.026.092.04.196.04.3s-.014.209-.04.3c.091-.026.195-.041.3-.041.104,0,.208.015.299.041-.026-.091-.04-.196-.04-.3s.014-.208.04-.3c-.091.026-.195.041-.299.041Z"/>
    <path d="m24.968,10.056c0-.584-.455-1.039-1.039-1.039-.247,0-.468.076-.65.219-.182-.143-.403-.219-.65-.219-.585,0-1.04.455-1.04,1.039s.455,1.039,1.04,1.039c.104,0,.208-.013.299-.039-.026.092-.04.196-.04.3,0,.105.014.209.04.3-.092-.026-.195-.039-.299-.039-.585,0-1.04.455-1.04,1.039s.455,1.039,1.04,1.039,1.039-.454,1.039-1.039c0-.105-.013-.209-.039-.3.092.026.196.039.3.039.584,0,1.039-.455,1.039-1.04,0-.247-.077-.467-.22-.649.143-.182.22-.403.22-.65Z"/>
    <path d="m19.899,5.117c-.247,0-.468.076-.65.219-.182-.143-.403-.219-.65-.219s-.469.076-.651.219c-.182-.143-.403-.219-.649-.219-.585,0-1.04.455-1.04,1.039,0,.247.077.468.22.65-.143.181-.22.402-.22.65s.077.469.22.651c-.143.182-.22.402-.22.649s.077.468.22.65c-.143.182-.22.402-.22.649s.077.468.22.65c-.143.182-.22.403-.22.65,0,.585.455,1.04,1.04,1.04s1.039-.455,1.039-1.04c0-.247-.077-.468-.22-.65.143-.182.22-.403.22-.65,0-.104-.013-.208-.039-.299.091.026.195.039.3.039.247,0,.468-.076.65-.219.182.143.403.219.65.219.584,0,1.039-.454,1.039-1.039,0-.247-.077-.467-.22-.649.143-.182.22-.403.22-.65s-.078-.468-.221-.65c.143-.183.221-.404.221-.651,0-.584-.455-1.039-1.039-1.039Zm-1.001,2.639c-.091-.026-.195-.041-.299-.041-.105,0-.209.015-.3.041.026-.091.04-.196.04-.3s-.014-.208-.04-.3c.091.026.195.041.3.041.104,0,.208-.015.299-.041-.026.092-.04.196-.04.3s.014.209.04.3Z"/>
  </g>
  <g>
    <path class="cls-4" d="m9.923,145.154c.079.066.138.154.179.264l1.38,3.553c.019.048.028.093.028.138,0,.033-.005.069-.017.11s-.029.08-.055.118c-.025.039-.061.071-.107.096-.046.026-.102.039-.168.039-.077,0-.148-.024-.214-.071-.066-.048-.114-.11-.143-.187l-.363-1.045h-1.584l-.352,1.1c-.022.066-.062.117-.121.151s-.123.052-.192.052c-.099,0-.185-.033-.256-.099-.072-.066-.107-.146-.107-.242,0-.037.005-.072.017-.104l1.309-3.608c.04-.11.1-.198.179-.264.079-.066.177-.099.294-.099s.216.033.294.099Zm-.883,2.431h1.199l-.633-1.809-.566,1.809Z"/>
    <path class="cls-4" d="m12.395,149.472c-.055,0-.108-.01-.16-.03s-.097-.048-.137-.085c-.041-.037-.074-.083-.099-.137-.026-.055-.039-.116-.039-.182v-3.476c0-.117.042-.218.126-.302s.187-.126.308-.126h1.589c.202,0,.38.029.537.088.156.059.287.138.393.239s.187.22.242.357c.055.138.082.285.082.443,0,.139-.019.26-.058.363-.039.103-.088.192-.148.267s-.128.135-.204.181-.151.08-.228.102c.154.051.282.116.385.195.103.079.185.166.248.261.062.095.106.198.132.308.025.11.038.22.038.33,0,.18-.037.343-.11.49-.073.146-.173.273-.3.379s-.275.189-.445.248-.353.088-.547.088h-1.606Zm.214-3.762v1.227h1.292c.092,0,.182-.015.27-.044s.165-.07.231-.124c.066-.053.119-.117.16-.192s.061-.159.061-.25c0-.18-.057-.327-.17-.443-.114-.115-.279-.173-.495-.173h-1.348Zm0,1.771v1.414h1.342c.297,0,.503-.06.619-.179.115-.119.173-.281.173-.487,0-.238-.08-.422-.239-.553-.16-.13-.372-.195-.635-.195h-1.26Z"/>
    <path class="cls-4" d="m17.257,145.751c-.161.079-.302.19-.42.335-.12.145-.214.32-.284.525-.069.205-.104.435-.104.688s.035.482.104.688c.07.205.164.381.284.528.119.146.259.259.42.338.162.079.333.118.517.118.161,0,.303-.025.426-.074s.23-.115.322-.195.167-.171.226-.272c.059-.101.104-.202.137-.305.022-.073.061-.125.116-.157.055-.031.114-.046.176-.046.084,0,.163.027.237.083.073.055.11.132.11.231,0,.081-.033.194-.099.341s-.168.292-.308.437c-.139.145-.32.271-.542.377s-.489.16-.8.16c-.33,0-.619-.062-.866-.187s-.453-.292-.616-.5-.286-.448-.368-.718-.124-.551-.124-.844c0-.29.042-.57.124-.842.083-.271.205-.51.368-.718.163-.207.369-.373.616-.498s.536-.187.866-.187c.253,0,.487.048.701.143.215.095.4.21.556.344s.277.276.363.426c.086.15.129.28.129.391,0,.099-.037.177-.11.233-.074.057-.152.085-.237.085-.062,0-.121-.016-.176-.047s-.094-.083-.116-.157c-.033-.103-.079-.204-.137-.302-.059-.099-.134-.189-.226-.27s-.199-.146-.322-.195c-.123-.05-.265-.074-.426-.074-.184,0-.355.04-.517.118Z"/>
  </g>
  <rect class="cls-3" x="3.595" y="143.806" width="21.156" height="6.837" rx="2.835" ry="2.835"/>
  <path class="cls-4" d="m14.426,27.697c.079.066.138.154.179.264l1.38,3.553c.019.048.028.093.028.138,0,.033-.005.069-.017.11s-.029.08-.055.118c-.025.039-.061.071-.107.096-.046.026-.102.039-.168.039-.077,0-.148-.024-.214-.071-.066-.048-.114-.11-.143-.187l-.363-1.045h-1.584l-.352,1.1c-.022.066-.062.117-.121.151s-.123.052-.192.052c-.099,0-.185-.033-.256-.099-.072-.066-.107-.146-.107-.242,0-.037.005-.072.017-.104l1.309-3.608c.04-.11.1-.198.179-.264.079-.066.177-.099.294-.099s.216.033.294.099Zm-.883,2.431h1.199l-.633-1.809-.566,1.809Z"/>
  <path class="cls-4" d="m12.938,71.168c-.055,0-.108-.01-.16-.03s-.097-.048-.137-.085c-.041-.037-.074-.083-.099-.137-.026-.055-.039-.116-.039-.182v-3.476c0-.117.042-.218.126-.302s.187-.126.308-.126h1.589c.202,0,.38.029.537.088.156.059.287.138.393.239s.187.22.242.357c.055.138.082.285.082.443,0,.139-.019.26-.058.363-.039.103-.088.192-.148.267s-.128.135-.204.181-.151.08-.228.102c.154.051.282.116.385.195.103.079.185.166.248.261.062.095.106.198.132.308.025.11.038.22.038.33,0,.18-.037.343-.11.49-.073.146-.173.273-.3.379s-.275.189-.445.248-.353.088-.547.088h-1.606Zm.214-3.762v1.227h1.292c.092,0,.182-.015.27-.044s.165-.07.231-.124c.066-.053.119-.117.16-.192s.061-.159.061-.25c0-.18-.057-.327-.17-.443-.114-.115-.279-.173-.495-.173h-1.348Zm0,1.771v1.414h1.342c.297,0,.503-.06.619-.179.115-.119.173-.281.173-.487,0-.238-.08-.422-.239-.553-.16-.13-.372-.195-.635-.195h-1.26Z"/>
  <line class="cls-2" x1="11.339" y1="86.237" x2="17.008" y2="86.237"/>
  <path class="cls-4" d="m13.75,106.601c-.161.079-.302.19-.42.335-.12.145-.214.32-.284.525-.069.205-.104.435-.104.688s.035.482.104.688c.07.205.164.381.284.528.119.146.259.259.42.338.162.079.333.118.517.118.161,0,.303-.025.426-.074s.23-.115.322-.195.167-.171.226-.272c.059-.101.104-.202.137-.305.022-.073.061-.125.116-.157.055-.031.114-.046.176-.046.084,0,.163.027.237.083.073.055.11.132.11.231,0,.081-.033.194-.099.341s-.168.292-.308.437c-.139.145-.32.271-.542.377s-.489.16-.8.16c-.33,0-.619-.062-.866-.187s-.453-.292-.616-.5-.286-.448-.368-.718-.124-.551-.124-.844c0-.29.042-.57.124-.842.083-.271.205-.51.368-.718.163-.207.369-.373.616-.498s.536-.187.866-.187c.253,0,.487.048.701.143.215.095.4.21.556.344s.277.276.363.426c.086.15.129.28.129.391,0,.099-.037.177-.11.233-.074.057-.152.085-.237.085-.062,0-.121-.016-.176-.047s-.094-.083-.116-.157c-.033-.103-.079-.204-.137-.302-.059-.099-.134-.189-.226-.27s-.199-.146-.322-.195c-.123-.05-.265-.074-.426-.074-.184,0-.355.04-.517.118Z"/>
  <line class="cls-3" x1="2.835" y1="345.827" x2="25.512" y2="345.827"/>
  <path class="cls-4" d="m12.905,188.629c-.055,0-.108-.01-.16-.03-.051-.02-.097-.048-.137-.085-.041-.037-.074-.083-.099-.138-.026-.055-.039-.115-.039-.182v-3.476c0-.117.042-.218.126-.303.084-.084.187-.126.308-.126h1.304c.216,0,.433.036.649.109s.411.195.583.366c.172.17.312.394.418.671.106.276.159.617.159,1.021,0,.406-.053.749-.159,1.025-.106.277-.246.5-.418.671s-.367.293-.583.366-.433.109-.649.109h-1.304Zm.214-3.762v3.185h.962c.216,0,.405-.038.567-.113.161-.074.295-.181.401-.318s.185-.305.236-.501.077-.417.077-.662c0-.242-.026-.462-.077-.657-.051-.196-.13-.363-.236-.501s-.24-.244-.401-.319c-.162-.074-.351-.112-.567-.112h-.962Z"/>
  <path class="cls-4" d="m13.051,227.783c-.055,0-.108-.011-.16-.03-.051-.021-.097-.049-.137-.086-.041-.036-.074-.082-.099-.137-.026-.056-.039-.116-.039-.182v-3.477c0-.117.042-.218.126-.302.084-.085.187-.127.308-.127h2.492c.081,0,.148.027.203.083.055.055.083.122.083.203s-.027.149-.083.206c-.055.057-.123.085-.203.085h-2.277v1.194h2.14c.081,0,.148.028.204.085.055.057.083.126.083.206,0,.077-.028.145-.083.201-.055.057-.123.085-.204.085h-2.14v1.413h2.321c.077,0,.144.029.201.086.057.057.085.125.085.206s-.028.148-.085.203c-.057.056-.124.083-.201.083h-2.536Z"/>
  <path class="cls-4" d="m13.475,266.611c0,.089-.031.165-.093.229-.062.064-.14.097-.231.097-.088,0-.164-.032-.229-.097-.064-.063-.096-.14-.096-.229v-3.586c0-.117.042-.218.126-.302.084-.085.187-.127.308-.127h2.112c.081,0,.149.027.207.083.057.055.085.122.085.203s-.028.149-.085.206c-.057.057-.126.085-.207.085h-1.897v1.194h1.727c.081,0,.148.028.204.085s.083.126.083.206c0,.077-.027.145-.083.201s-.123.085-.204.085h-1.727v1.666Z"/>
  <line class="cls-3" x1="2.835" y1="179.291" x2="25.512" y2="179.291"/>
  <line class="cls-3" x1="2.835" y1="22.662" x2="25.512" y2="22.662"/>
  <line class="cls-3" x1="2.835" y1="296.751" x2="25.512" y2="296.751"/>
  <line class="cls-3" x1="2.835" y1="140.137" x2="25.512" y2="140.137"/>
  <g>
    <path class="cls-4" d="m8.905,306.086c-.055,0-.108-.01-.16-.03-.051-.02-.097-.048-.137-.085-.041-.037-.074-.083-.099-.138-.026-.055-.039-.115-.039-.182v-3.476c0-.117.042-.218.126-.303.084-.084.187-.126.308-.126h1.304c.216,0,.433.036.649.109s.411.195.583.366c.172.17.312.394.418.671.106.276.159.617.159,1.021,0,.406-.053.749-.159,1.025-.106.277-.246.5-.418.671s-.367.293-.583.366-.433.109-.649.109h-1.304Zm.214-3.762v3.185h.962c.216,0,.405-.038.567-.113.161-.074.295-.181.401-.318s.185-.305.236-.501.077-.417.077-.662c0-.242-.026-.462-.077-.657-.051-.196-.13-.363-.236-.501s-.24-.244-.401-.319c-.162-.074-.351-.112-.567-.112h-.962Z"/>
    <path class="cls-4" d="m12.948,306.086c-.055,0-.108-.01-.16-.03-.051-.02-.097-.048-.137-.085-.041-.037-.074-.083-.099-.138-.026-.055-.039-.115-.039-.182v-3.476c0-.117.042-.218.126-.303.084-.084.187-.126.308-.126h2.492c.081,0,.148.027.203.082.055.055.083.123.083.203,0,.081-.027.149-.083.207-.055.057-.123.085-.203.085h-2.277v1.193h2.14c.081,0,.148.028.204.085.055.058.083.126.083.207,0,.076-.028.144-.083.2-.055.057-.123.085-.204.085h-2.14v1.414h2.321c.077,0,.144.028.201.085.057.057.085.126.085.206,0,.081-.028.148-.085.204-.057.055-.124.082-.201.082h-2.536Z"/>
    <path class="cls-4" d="m16.918,305.762c0,.088-.031.164-.093.229-.062.063-.14.096-.231.096-.088,0-.164-.032-.229-.096-.064-.064-.096-.141-.096-.229v-3.586c0-.117.042-.218.126-.303.084-.084.187-.126.308-.126h2.112c.081,0,.149.027.207.082.057.055.085.123.085.203,0,.081-.028.149-.085.207-.057.057-.126.085-.207.085h-1.897v1.193h1.727c.081,0,.148.028.204.085.055.058.083.126.083.207,0,.076-.027.144-.083.2s-.123.085-.204.085h-1.727v1.667Z"/>
  </g>
  <rect class="cls-3" x="3.595" y="300.42" width="21.156" height="6.837" rx="2.835" ry="2.835"/>
  <line class="cls-2" x1="4.961" y1="355.748" x2="9.213" y2="355.748"/>
  <rect class="cls-1" width="28.346" height="3642.52"/>
</svg>